<svg xmlns="http://www.w3.org/2000/svg" viewBox="0 0 500.45 560.09"><defs><style>.cls-1{fill:none;stroke:#fff;stroke-miterlimit:10;stroke-width:3px;}</style></defs><title>大兴机场图</title><g id="图层_2" data-name="图层 2"><g id="图层_3" data-name="图层 3"><path class="cls-1" d="M371.24,183.74c-2.73,2.1-3.68,5.44-2.12,7.46s5,2,7.75-.13,3.68-5.44,2.12-7.46S374,181.64,371.24,183.74Z"/><path class="cls-1" d="M205.15,226.88c-3.16,3.15-9.84,1.59-14.93-3.5s-6.65-11.77-3.5-14.93,9.85-1.59,14.93,3.5S208.3,223.72,205.15,226.88Z"/><path class="cls-1" d="M293.3,228.68c3.16,3.16,9.84,1.6,14.93-3.49s6.65-11.77,3.49-14.93-9.84-1.59-14.93,3.5S290.14,225.53,293.3,228.68Z"/><path class="cls-1" d="M230.48,237.5c1.85,4.1.9,8.52-2.1,9.87s-6.94-.87-8.79-5-.9-8.51,2.11-9.86S228.64,233.41,230.48,237.5Z"/><path class="cls-1" d="M264.94,239.72c-1.85,4.1-.91,8.52,2.1,9.87s6.94-.87,8.79-5,.9-8.51-2.11-9.86S266.78,235.63,264.94,239.72Z"/><path class="cls-1" d="M210.6,281.09c0,3.29-4.08,6-9.11,6s-9.11-2.67-9.11-6,4.08-6,9.11-6S210.6,277.8,210.6,281.09Z"/><path class="cls-1" d="M302.51,281.86c0,3.62-3.77,6.55-8.42,6.55s-8.43-2.93-8.43-6.55,3.77-6.56,8.43-6.56S302.51,278.24,302.51,281.86Z"/><path class="cls-1" d="M219.18,318.66c-2.2,4.21-2,8.68.54,10s6.31-1,8.51-5.26,2-8.67-.55-10S221.38,314.46,219.18,318.66Z"/><path class="cls-1" d="M274.31,319.22c2.2,4.21,1.95,8.68-.55,10s-6.31-1-8.5-5.25-2-8.68.54-10S272.11,315,274.31,319.22Z"/><path class="cls-1" d="M13.76,425.07l13.78-12.25-6.89-12.77L2.52,405.16s-7.32-20.43,17.2-28.6,128.59-24.11,143.65-91.91c15-67.41-143.31-104.52-143.31-104.52s-17.71-2-12.6-26.55l5.79,2L23.8,137.24l-6.47-4.08s22.81-19.07,36.43,2.72,66.38,58.55,128.34,34.72c0,0,43.17-17.6,57,1.32.35.47,1.41,4.66,1,3-.73-3.16,3.06,13.48,4.29,18.48l8.64-.2,5.27-16.39a12.27,12.27,0,0,1,2.64-4.54,24.77,24.77,0,0,1,17.45-7.45c12.76-.34,58,11.57,97.19,14,26.48,1.62,61.5-22.22,83.75-48.47a8.61,8.61,0,0,1,5.23-3c5.66-.89,16.78-1.11,19.79,9.91L479.63,141l9.87,18.38,7.49-3.06s10.55,21.78-17.36,28.93-146.72,34-145,105.19c0,0,18,67.07,152.51,94.64,0,0,12.59,4.77,8.17,27.92l-7.83-1.71-9.53,16.34,5.78,3.75s-13.61,20.42-29.27,6.81S364.23,334,291.71,354.09c0,0-56.85,6.13-18,175.15,0,0,8.17,20.94-16.85,28.09l-1.53-6.9-20.68-.25-1.79,8.17s-22-4.09-17.87-20.94,43.4-155.23-12.26-184.85S38.27,430.18,38.27,430.18,28.57,442.94,13.76,425.07Z"/><path class="cls-1" d="M27.2,396.65,33,408.56s175.66-106.89,191-111,19.06,4.77,20.42,15.32S243,502.52,236.22,539.62h16.35s-10.9-160.44,0-231.42c0,0,.85-21.75,21.48-8.11,23.75,15.7,134.17,67.79,194.69,120.13l8.68-14S307.2,319.88,271.65,290.37c0,0-12.71-11.3,8.66-23.85,34-20,153.19-84.26,153.19-84.26l-2.95-5.6s-154,85.8-154.84,86c-.42.12-21.78,15.06-23.4-7.15s-1.53-53.45.77-62.34l-8.64.2s3.7,54.48.13,64.69-14.81,9.19-27.83,2.3S91.54,189.5,66.61,171.28l-2.56,5.88S216.24,264,223.43,269.74c0,0,11.94,8.27,2.88,18.92C216.17,300.58,38.13,392,27.2,396.65Z"/><path class="cls-1" d="M244,1.64s-26.46-3.06-24.85,19.57c1.27,17.73,37.71,97.62,1.71,121.11,0,0-14.47,12.51,4.08,15.57,0,0,13.11,1.71,14.3,1.71.4,0,1.7-3.63,3.19-9.89a221.74,221.74,0,0,0,5.23-60.24C245.6,51.68,244,1.64,244,1.64Z"/><path class="cls-1" d="M261.69,1.64s-7.15,75.06-7.41,83.49-1.7,66.48,5.75,74.47l16.74-2.16a4.52,4.52,0,0,0,1.61-.42c3-1.37,12.17-6.75-.86-16.74-15.32-11.75-18.22-30,6.82-119.76C284.34,20.52,291,3.51,261.69,1.64Z"/><path class="cls-1" d="M238.33,12.49S224.92,11,225.69,20.92s10.4,23.61,10.72,53.23h7.92S241.52,20,238.33,12.49Z"/><path class="cls-1" d="M266.41,12.41s-7.66,41.31-8.3,61.74h8.3s6.26-41.49,11.23-50.94S266.41,12.41,266.41,12.41Z"/><line class="cls-1" x1="256.12" y1="149.24" x2="243.05" y2="149.24"/><path class="cls-1" d="M280.81,82.87s-6,8.18-5.79,10.73-1.53,25-2,28.73c-.49,3.54,3.93,14.56,17.4,25.57a7.85,7.85,0,0,0,4.12,1.73c4.39.44,14.1,1.33,18.95,1,6.38-.38,62.42-24.13,75.19-47.75a6.82,6.82,0,0,0,0-5.23c-.74-1.89-4.21-7.4-6.6-11.11A7.8,7.8,0,0,0,375.49,83l-86.55-.25Z"/><path class="cls-1" d="M221.31,80.79s6,8.18,5.78,10.73,1.53,25,2,28.72c.48,3.54-3.94,14.57-17.4,25.57a7.7,7.7,0,0,1-4.13,1.73c-4.39.45-14.09,1.33-18.94,1-6.39-.38-62.43-24.12-75.19-47.74a6.85,6.85,0,0,1,0-5.24c.73-1.88,4.21-7.4,6.6-11.11a7.84,7.84,0,0,1,6.55-3.58l86.55-.24Z"/><polygon class="cls-1" points="33.39 146.99 25.22 159.24 63.52 178.13 66.07 172.26 33.39 146.99"/><polygon class="cls-1" points="471.56 147.76 480.14 162.51 433.47 182.68 430.55 176.66 471.56 147.76"/><polygon class="cls-1" points="62 380.38 66.44 388.97 32.45 409.54 26.67 397.62 62 380.38"/><polygon class="cls-1" points="434.42 386.36 430.13 392.39 468.2 421.2 476.88 407.16 434.42 386.36"/><path class="cls-1" d="M129.21,182.32c2.73,2.09,3.67,5.43,2.12,7.46s-5,2-7.76-.14-3.67-5.44-2.12-7.46S126.48,180.22,129.21,182.32Z"/></g></g></svg>